<svg xmlns="http://www.w3.org/2000/svg" version="1.1" xmlns:xlink="http://www.w3.org/1999/xlink" xmlns:svgjs="http://svgjs.dev/svgjs" width="2000" height="1252" viewBox="0 0 2000 1252"><g transform="matrix(1,0,0,1,-1.2121212121212466,-2.019354838709546)"><svg viewBox="0 0 396 248" data-background-color="#ffffff" preserveAspectRatio="xMidYMid meet" height="1252" width="2000" xmlns="http://www.w3.org/2000/svg" xmlns:xlink="http://www.w3.org/1999/xlink"><g id="tight-bounds" transform="matrix(1,0,0,1,0.2400000000000091,0.4000000000000057)"><svg viewBox="0 0 395.52 247.2" height="247.2" width="395.52"><g><svg></svg></g><g><svg viewBox="0 0 395.52 247.2" height="247.2" width="395.52"><g transform="matrix(1,0,0,1,75.54432,66.13936608513372)"><svg viewBox="0 0 244.43135999999998 114.92126782973256" height="114.92126782973256" width="244.43135999999998"><g><svg viewBox="0 0 324.9327282916985 152.7696" height="114.92126782973256" width="244.43135999999998"><g><svg viewBox="0 0 177.18018854860185 152.7696" height="152.7696" width="177.18018854860185"><g id="textblocktransform"><svg viewBox="0 0 177.18018854860185 152.7696" height="152.7696" width="177.18018854860185" id="textblock"><g><svg viewBox="0 0 177.18018854860185 152.7696" height="152.7696" width="177.18018854860185"><g transform="matrix(1,0,0,1,0,0)"><svg width="177.18018854860185" viewBox="-2.55 -37 43.55 37.55" height="152.7696" data-palette-color="#f00b51"><g class="wordmark-text-0" data-fill-palette-color="primary" id="text-0"><path d="M40.4-6.2Q41-5.8 41-5.05L41-5.05Q41-3.75 39.88-2.5 38.75-1.25 37.02-0.48 35.3 0.3 33.65 0.3L33.65 0.3Q31.05 0.3 29.68-1.63 28.3-3.55 27.98-4.98 27.65-6.4 27.1-10.1L27.1-10.1Q26.95-11.15 26.55-11.48 26.15-11.8 25-11.8L25-11.8 16.55-11.75Q12.45-5.1 9.15-2.27 5.85 0.55 2.15 0.55L2.15 0.55Q-0.15 0.55-1.35-0.35-2.55-1.25-2.55-2.7L-2.55-2.7Q-2.55-3.85-1.8-4.75-1.05-5.65 0.3-6L0.3-6Q0.3-4 0.88-3.33 1.45-2.65 2.75-2.65L2.75-2.65Q5.25-2.65 7.63-4.63 10-6.6 13.6-11.8L13.6-11.8Q12.45-11.9 11.98-12.2 11.5-12.5 11.5-13.1L11.5-13.1Q11.5-13.55 11.75-14.33 12-15.1 12.25-15.3L12.25-15.3Q13.05-15 15.5-14.65L15.5-14.65Q18.3-18.9 21.6-24.3 24.9-29.7 25.6-30.85L25.6-30.85Q26.55-32.4 28.3-35.3L28.3-35.3Q28.9-36.2 29.38-36.6 29.85-37 30.6-37L30.6-37Q31.25-37 32.15-36.75L32.15-36.75Q31.6-35.85 31.33-34.15 31.05-32.45 31-30.5L31-30.5 30.95-28.45Q30.95-25.85 31.08-22.38 31.2-18.9 31.35-16.7L31.35-16.7Q31.65-12.3 32.05-9.63 32.45-6.95 33.43-5.18 34.4-3.4 36.15-3.4L36.15-3.4Q37.3-3.4 38.4-4.17 39.5-4.95 40.4-6.2L40.4-6.2ZM23.25-14.15Q24.65-14.15 26.75-14.25L26.75-14.25 26.7-22.1Q26.7-26.3 27.05-29.05L27.05-29.05Q22.45-21.7 21.5-20.05L21.5-20.05 18.15-14.4Q21-14.15 23.25-14.15L23.25-14.15Z" fill="#f00b51" data-fill-palette-color="primary"></path></g></svg></g></svg></g></svg></g></svg></g><g transform="matrix(1,0,0,1,213.24542463820185,20.854976313786146)"><svg viewBox="0 0 111.68730365349667 111.0596473724277" height="111.0596473724277" width="111.68730365349667"><g><svg xmlns="http://www.w3.org/2000/svg" xmlns:xlink="http://www.w3.org/1999/xlink" version="1.1" x="0" y="0" viewBox="0.7946870066556548 0.9440723373042496 48.39822726815949 48.1262406560401" enable-background="new 0 0 50 50" xml:space="preserve" height="111.0596473724277" width="111.68730365349667" class="icon-icon-0" data-fill-palette-color="accent" id="icon-0"><g fill="#dfdfdf" data-fill-palette-color="accent"><g fill="#dfdfdf" data-fill-palette-color="accent"><path d="M47.744 1.017L1.866 19.03C0.994 19.372 0.962 20.596 1.816 20.983L11.958 25.585C12.233 25.71 12.44 25.945 12.532 26.234L16.883 40.08A1.06 1.06 0 0 0 18.533 40.611L26.109 34.904A1.06 1.06 0 0 1 27.339 34.872L40.042 43.442A1.06 1.06 0 0 0 41.68 42.755L49.175 2.198A1.06 1.06 0 0 0 47.744 1.018M19.944 27.55L18.573 35.33 15.043 24.19 39.262 9.158z" fill="#dfdfdf" data-fill-palette-color="accent"></path><path d="M8.117 29.581A1 1 0 0 0 6.703 29.581L1.1 35.184A1 1 0 1 0 2.514 36.598L8.117 30.995A1 1 0 0 0 8.117 29.581" fill="#dfdfdf" data-fill-palette-color="accent"></path><path d="M10.992 41.748L5.39 47.351A1 1 0 1 0 6.804 48.765L12.406 43.162A1 1 0 1 0 10.992 41.748" fill="#dfdfdf" data-fill-palette-color="accent"></path><path d="M27.288 41.748L21.685 47.351A1 1 0 1 0 23.099 48.765L28.702 43.162A1 1 0 1 0 27.288 41.748" fill="#dfdfdf" data-fill-palette-color="accent"></path></g><g fill="#dfdfdf" data-fill-palette-color="accent"><path d="M47.744 1.017L1.866 19.03C0.994 19.372 0.962 20.596 1.816 20.983L11.958 25.585C12.233 25.71 12.44 25.945 12.532 26.234L16.883 40.08A1.06 1.06 0 0 0 18.533 40.611L26.109 34.904A1.06 1.06 0 0 1 27.339 34.872L40.042 43.442A1.06 1.06 0 0 0 41.68 42.755L49.175 2.198A1.06 1.06 0 0 0 47.744 1.018M19.944 27.55L18.573 35.33 15.043 24.19 39.262 9.158z" fill="#dfdfdf" data-fill-palette-color="accent"></path><path d="M8.117 29.581A1 1 0 0 0 6.703 29.581L1.1 35.184A1 1 0 1 0 2.514 36.598L8.117 30.995A1 1 0 0 0 8.117 29.581" fill="#dfdfdf" data-fill-palette-color="accent"></path><path d="M10.992 41.748L5.39 47.351A1 1 0 1 0 6.804 48.765L12.406 43.162A1 1 0 1 0 10.992 41.748" fill="#dfdfdf" data-fill-palette-color="accent"></path><path d="M27.288 41.748L21.685 47.351A1 1 0 1 0 23.099 48.765L28.702 43.162A1 1 0 1 0 27.288 41.748" fill="#dfdfdf" data-fill-palette-color="accent"></path></g></g></svg></g></svg></g></svg></g></svg></g><g><path d="M245.816 0c68.262 0 123.6 55.338 123.6 123.6 0 68.262-55.338 123.6-123.6 123.6-41.828 0-78.803-20.777-101.168-52.574h6.406c21.603 28.777 56.009 47.392 94.762 47.392 65.401 0 118.418-53.018 118.418-118.418 0-65.401-53.018-118.418-118.418-118.418-38.753 0-73.159 18.616-94.762 47.392l-6.406 0c22.365-31.797 59.34-52.574 101.168-52.574z" fill="#f00b51" stroke="transparent" data-fill-palette-color="tertiary"></path></g></svg></g><defs></defs></svg><rect width="395.52" height="247.2" fill="none" stroke="none" visibility="hidden"></rect></g></svg></g></svg>